<svg width="326px" height="271px" QK="0 0 326 271" xmlns="http://www.w3.org/2000/svg" xmlns:xlink="http://www.w3.org/1999/xlink"><g transform="matrix(1, 0, 0, 1, 0, 0)" clip-path="url(#mainClip57718)"><g transform="matrix(0.5, 0, 0, 0.5, 540.6956953311566, -22.73527030057685)"><g transform="matrix(1, 0, 0, 1, -850.5627845941588, 47.4705406011537)"><g transform="matrix(1, 0, 0, 1, 0, 0)"><path d="M 26.16279069767442,0 C 40.61210101301495,0 52.32558139534884,11.71348038233389 52.32558139534884,26.16279069767442 C 52.32558139534884,40.61210101301495 40.61210101301495,52.32558139534884 26.16279069767442,52.32558139534884 C 11.71348038233389,52.32558139534884 0,40.61210101301495 0,26.16279069767442 C 0,11.71348038233389 11.71348038233389,0 26.16279069767442,0 z" fill="#79C900" stroke="none" transform="matrix(1, 0, 0, 1, 0.5, 0.5)"></path><text x="0" y="12.675" style="font: bold 11pt Helvetica, Arial, sans-serif" text-anchor="start" fill="whitesmoke" stroke="none" transform="matrix(1, 0, 0, 1, 8.66279069767442, 18.21279069767442)">Start</text></g><path d="M 4,0 C 6.209138999323175,0 8,1.7908610006768257 8,4 C 8,6.209138999323175 6.209138999323175,8 4,8 C 1.7908610006768257,8 0,6.209138999323175 0,4 C 0,1.7908610006768257 1.7908610006768257,0 4,0 z" fill="transparent" stroke="none" transform="matrix(1, 0, 0, 1, 0.5, 22.66279069767442)"></path><path d="M 4,0 C 6.209138999323175,0 8,1.7908610006768257 8,4 C 8,6.209138999323175 6.209138999323175,8 4,8 C 1.7908610006768257,8 0,6.209138999323175 0,4 C 0,1.7908610006768257 1.7908610006768257,0 4,0 z" fill="transparent" stroke="none" transform="matrix(1, 0, 0, 1, 44.82558139534884, 22.66279069767442)"></path><path d="M 4,0 C 6.209138999323175,0 8,1.7908610006768257 8,4 C 8,6.209138999323175 6.209138999323175,8 4,8 C 1.7908610006768257,8 0,6.209138999323175 0,4 C 0,1.7908610006768257 1.7908610006768257,0 4,0 z" fill="transparent" stroke="none" transform="matrix(1, 0, 0, 1, 22.66279069767442, 44.82558139534884)"></path></g><g transform="matrix(1, 0, 0, 1, -935.9999923706055, 243.8333312988281)"><g transform="matrix(1, 0, 0, 1, 0, 0)"><path d="M 111.5999984741211,0 L 0,49.800000000000004 L 111.5999984741211,99.60000000000001 L 223.1999969482422,49.800000000000004 z" fill="#00A9C9" stroke="none" transform="matrix(1, 0, 0, 1, 0.5, 0.5)"></path><text x="0" y="12.675" style="font: bold 11pt Helvetica, Arial, sans-serif" text-anchor="start" fill="whitesmoke" stroke="none" transform="matrix(1, 0, 0, 1, 64.29999923706055, 33.4)">Rucksack hat</text><text x="0" y="29.575000000000003" style="font: bold 11pt Helvetica, Arial, sans-serif" text-anchor="start" fill="whitesmoke" stroke="none" transform="matrix(1, 0, 0, 1, 64.29999923706055, 33.4)">Kapazität?</text></g><path d="M 4,0 C 6.209138999323175,0 8,1.7908610006768257 8,4 C 8,6.209138999323175 6.209138999323175,8 4,8 C 1.7908610006768257,8 0,6.209138999323175 0,4 C 0,1.7908610006768257 1.7908610006768257,0 4,0 z" fill="transparent" stroke="none" transform="matrix(1, 0, 0, 1, 108.0999984741211, 0.5)"></path><path d="M 4,0 C 6.209138999323175,0 8,1.7908610006768257 8,4 C 8,6.209138999323175 6.209138999323175,8 4,8 C 1.7908610006768257,8 0,6.209138999323175 0,4 C 0,1.7908610006768257 1.7908610006768257,0 4,0 z" fill="transparent" stroke="none" transform="matrix(1, 0, 0, 1, 0.5, 46.300000000000004)"></path><path d="M 4,0 C 6.209138999323175,0 8,1.7908610006768257 8,4 C 8,6.209138999323175 6.209138999323175,8 4,8 C 1.7908610006768257,8 0,6.209138999323175 0,4 C 0,1.7908610006768257 1.7908610006768257,0 4,0 z" fill="transparent" stroke="none" transform="matrix(1, 0, 0, 1, 215.6999969482422, 46.300000000000004)"></path><path d="M 4,0 C 6.209138999323175,0 8,1.7908610006768257 8,4 C 8,6.209138999323175 6.209138999323175,8 4,8 C 1.7908610006768257,8 0,6.209138999323175 0,4 C 0,1.7908610006768257 1.7908610006768257,0 4,0 z" fill="transparent" stroke="none" transform="matrix(1, 0, 0, 1, 108.0999984741211, 92.10000000000001)"></path></g><g transform="matrix(1, 0, 0, 1, -635.2999954223633, 252.8333312988281)"><g transform="matrix(1, 0, 0, 1, 0, 0)"><path d="M 0,0 L 153.8000030517578,0 L 153.8000030517578,83.60000000000001 L 0,83.60000000000001 z" fill="#00A9C9" stroke="none" transform="matrix(1, 0, 0, 1, 0.5, 0.5)"></path><text x="0" y="12.675" style="font: bold 11pt Helvetica, Arial, sans-serif" text-anchor="start" fill="whitesmoke" stroke="none" transform="matrix(1, 0, 0, 1, 8.5, 8.5)">Optimum ist gleich</text><text x="0" y="29.575000000000003" style="font: bold 11pt Helvetica, Arial, sans-serif" text-anchor="start" fill="whitesmoke" stroke="none" transform="matrix(1, 0, 0, 1, 8.5, 8.5)">dem Wert der Zelle</text><text x="0" y="46.475" style="font: bold 11pt Helvetica, Arial, sans-serif" text-anchor="start" fill="whitesmoke" stroke="none" transform="matrix(1, 0, 0, 1, 8.5, 8.5)">oben in der selben</text><text x="0" y="63.37500000000001" style="font: bold 11pt Helvetica, Arial, sans-serif" text-anchor="start" fill="whitesmoke" stroke="none" transform="matrix(1, 0, 0, 1, 8.5, 8.5)">Spalte</text></g><path d="M 4,0 C 6.209138999323175,0 8,1.7908610006768257 8,4 C 8,6.209138999323175 6.209138999323175,8 4,8 C 1.7908610006768257,8 0,6.209138999323175 0,4 C 0,1.7908610006768257 1.7908610006768257,0 4,0 z" fill="transparent" stroke="none" transform="matrix(1, 0, 0, 1, 73.4000015258789, 0.5)"></path><path d="M 4,0 C 6.209138999323175,0 8,1.7908610006768257 8,4 C 8,6.209138999323175 6.209138999323175,8 4,8 C 1.7908610006768257,8 0,6.209138999323175 0,4 C 0,1.7908610006768257 1.7908610006768257,0 4,0 z" fill="transparent" stroke="none" transform="matrix(1, 0, 0, 1, 0.5, 38.300000000000004)"></path><path d="M 4,0 C 6.209138999323175,0 8,1.7908610006768257 8,4 C 8,6.209138999323175 6.209138999323175,8 4,8 C 1.7908610006768257,8 0,6.209138999323175 0,4 C 0,1.7908610006768257 1.7908610006768257,0 4,0 z" fill="transparent" stroke="none" transform="matrix(1, 0, 0, 1, 146.3000030517578, 38.300000000000004)"></path><path d="M 4,0 C 6.209138999323175,0 8,1.7908610006768257 8,4 C 8,6.209138999323175 6.209138999323175,8 4,8 C 1.7908610006768257,8 0,6.209138999323175 0,4 C 0,1.7908610006768257 1.7908610006768257,0 4,0 z" fill="transparent" stroke="none" transform="matrix(1, 0, 0, 1, 73.4000015258789, 76.10000000000001)"></path></g><g transform="matrix(1, 0, 0, 1, -903.4999923706055, 144.28333129882813)"><g transform="matrix(1, 0, 0, 1, 0, 0)"><path d="M 0,0 L 158.1999969482422,0 L 158.1999969482422,66.7 L 0,66.7 z" fill="#00A9C9" stroke="none" transform="matrix(1, 0, 0, 1, 0.5, 0.5)"></path><text x="0" y="12.675" style="font: bold 11pt Helvetica, Arial, sans-serif" text-anchor="start" fill="whitesmoke" stroke="none" transform="matrix(1, 0, 0, 1, 8.5, 8.5)">Nimm nächste Zelle</text><text x="0" y="29.575000000000003" style="font: bold 11pt Helvetica, Arial, sans-serif" text-anchor="start" fill="whitesmoke" stroke="none" transform="matrix(1, 0, 0, 1, 8.5, 8.5)">(Horizontal)</text><text x="0" y="46.475" style="font: bold 11pt Helvetica, Arial, sans-serif" text-anchor="start" fill="whitesmoke" stroke="none" transform="matrix(1, 0, 0, 1, 8.5, 8.5)"></text></g><path d="M 4,0 C 6.209138999323175,0 8,1.7908610006768257 8,4 C 8,6.209138999323175 6.209138999323175,8 4,8 C 1.7908610006768257,8 0,6.209138999323175 0,4 C 0,1.7908610006768257 1.7908610006768257,0 4,0 z" fill="transparent" stroke="none" transform="matrix(1, 0, 0, 1, 75.5999984741211, 0.5)"></path><path d="M 4,0 C 6.209138999323175,0 8,1.7908610006768257 8,4 C 8,6.209138999323175 6.209138999323175,8 4,8 C 1.7908610006768257,8 0,6.209138999323175 0,4 C 0,1.7908610006768257 1.7908610006768257,0 4,0 z" fill="transparent" stroke="none" transform="matrix(1, 0, 0, 1, 0.5, 29.85)"></path><path d="M 4,0 C 6.209138999323175,0 8,1.7908610006768257 8,4 C 8,6.209138999323175 6.209138999323175,8 4,8 C 1.7908610006768257,8 0,6.209138999323175 0,4 C 0,1.7908610006768257 1.7908610006768257,0 4,0 z" fill="transparent" stroke="none" transform="matrix(1, 0, 0, 1, 150.6999969482422, 29.85)"></path><path d="M 4,0 C 6.209138999323175,0 8,1.7908610006768257 8,4 C 8,6.209138999323175 6.209138999323175,8 4,8 C 1.7908610006768257,8 0,6.209138999323175 0,4 C 0,1.7908610006768257 1.7908610006768257,0 4,0 z" fill="transparent" stroke="none" transform="matrix(1, 0, 0, 1, 75.5999984741211, 59.2)"></path></g><g transform="matrix(1, 0, 0, 1, -908.7999954223633, 394.2833312988281)"><g transform="matrix(1, 0, 0, 1, 0, 0)"><path d="M 0,0 L 166.8000030517578,0 L 166.8000030517578,66.7 L 0,66.7 z" fill="#00A9C9" stroke="none" transform="matrix(1, 0, 0, 1, 0.5, 0.5)"></path><text x="0" y="12.675" style="font: bold 11pt Helvetica, Arial, sans-serif" text-anchor="start" fill="whitesmoke" stroke="none" transform="matrix(1, 0, 0, 1, 8.5, 8.5)">Ziehe das Gewicht</text><text x="0" y="29.575000000000003" style="font: bold 11pt Helvetica, Arial, sans-serif" text-anchor="start" fill="whitesmoke" stroke="none" transform="matrix(1, 0, 0, 1, 8.5, 8.5)">von der Kapazität ab.</text><text x="0" y="46.475" style="font: bold 11pt Helvetica, Arial, sans-serif" text-anchor="start" fill="whitesmoke" stroke="none" transform="matrix(1, 0, 0, 1, 8.5, 8.5)">(Bsp. 5kg-4kg)</text></g><path d="M 4,0 C 6.209138999323175,0 8,1.7908610006768257 8,4 C 8,6.209138999323175 6.209138999323175,8 4,8 C 1.7908610006768257,8 0,6.209138999323175 0,4 C 0,1.7908610006768257 1.7908610006768257,0 4,0 z" fill="transparent" stroke="none" transform="matrix(1, 0, 0, 1, 79.9000015258789, 0.5)"></path><path d="M 4,0 C 6.209138999323175,0 8,1.7908610006768257 8,4 C 8,6.209138999323175 6.209138999323175,8 4,8 C 1.7908610006768257,8 0,6.209138999323175 0,4 C 0,1.7908610006768257 1.7908610006768257,0 4,0 z" fill="transparent" stroke="none" transform="matrix(1, 0, 0, 1, 0.5, 29.85)"></path><path d="M 4,0 C 6.209138999323175,0 8,1.7908610006768257 8,4 C 8,6.209138999323175 6.209138999323175,8 4,8 C 1.7908610006768257,8 0,6.209138999323175 0,4 C 0,1.7908610006768257 1.7908610006768257,0 4,0 z" fill="transparent" stroke="none" transform="matrix(1, 0, 0, 1, 159.3000030517578, 29.85)"></path><path d="M 4,0 C 6.209138999323175,0 8,1.7908610006768257 8,4 C 8,6.209138999323175 6.209138999323175,8 4,8 C 1.7908610006768257,8 0,6.209138999323175 0,4 C 0,1.7908610006768257 1.7908610006768257,0 4,0 z" fill="transparent" stroke="none" transform="matrix(1, 0, 0, 1, 79.9000015258789, 59.2)"></path></g><g transform="matrix(1, 0, 0, 1, -975.5999908447266, 517.7333312988281)"><g transform="matrix(1, 0, 0, 1, 0, 0)"><path d="M 150.1999969482422,0 L 0,32.900000000000006 L 150.1999969482422,65.80000000000001 L 300.3999938964844,32.900000000000006 z" fill="#00A9C9" stroke="none" transform="matrix(1, 0, 0, 1, 0.5, 0.5)"></path><text x="0" y="12.675" style="font: bold 11pt Helvetica, Arial, sans-serif" text-anchor="start" fill="whitesmoke" stroke="none" transform="matrix(1, 0, 0, 1, 83.5999984741211, 24.950000000000003)">Restkapazität &gt; 0?</text></g><path d="M 4,0 C 6.209138999323175,0 8,1.7908610006768257 8,4 C 8,6.209138999323175 6.209138999323175,8 4,8 C 1.7908610006768257,8 0,6.209138999323175 0,4 C 0,1.7908610006768257 1.7908610006768257,0 4,0 z" fill="transparent" stroke="none" transform="matrix(1, 0, 0, 1, 146.6999969482422, 0.5)"></path><path d="M 4,0 C 6.209138999323175,0 8,1.7908610006768257 8,4 C 8,6.209138999323175 6.209138999323175,8 4,8 C 1.7908610006768257,8 0,6.209138999323175 0,4 C 0,1.7908610006768257 1.7908610006768257,0 4,0 z" fill="transparent" stroke="none" transform="matrix(1, 0, 0, 1, 0.5, 29.400000000000006)"></path><path d="M 4,0 C 6.209138999323175,0 8,1.7908610006768257 8,4 C 8,6.209138999323175 6.209138999323175,8 4,8 C 1.7908610006768257,8 0,6.209138999323175 0,4 C 0,1.7908610006768257 1.7908610006768257,0 4,0 z" fill="transparent" stroke="none" transform="matrix(1, 0, 0, 1, 292.8999938964844, 29.400000000000006)"></path><path d="M 4,0 C 6.209138999323175,0 8,1.7908610006768257 8,4 C 8,6.209138999323175 6.209138999323175,8 4,8 C 1.7908610006768257,8 0,6.209138999323175 0,4 C 0,1.7908610006768257 1.7908610006768257,0 4,0 z" fill="transparent" stroke="none" transform="matrix(1, 0, 0, 1, 146.6999969482422, 58.30000000000001)"></path></g><g transform="matrix(1, 0, 0, 1, -599.9999923706055, 536.1833312988281)"><g transform="matrix(1, 0, 0, 1, 0, 0)"><path d="M 0,0 L 151.1999969482422,0 L 151.1999969482422,32.900000000000006 L 0,32.900000000000006 z" fill="#00A9C9" stroke="none" transform="matrix(1, 0, 0, 1, 0.5, 0.5)"></path><text x="0" y="12.675" style="font: bold 11pt Helvetica, Arial, sans-serif" text-anchor="start" fill="whitesmoke" stroke="none" transform="matrix(1, 0, 0, 1, 8.5, 8.5)">Optimum steht fest</text></g><path d="M 4,0 C 6.209138999323175,0 8,1.7908610006768257 8,4 C 8,6.209138999323175 6.209138999323175,8 4,8 C 1.7908610006768257,8 0,6.209138999323175 0,4 C 0,1.7908610006768257 1.7908610006768257,0 4,0 z" fill="transparent" stroke="none" transform="matrix(1, 0, 0, 1, 72.0999984741211, 0.5)"></path><path d="M 4,0 C 6.209138999323175,0 8,1.7908610006768257 8,4 C 8,6.209138999323175 6.209138999323175,8 4,8 C 1.7908610006768257,8 0,6.209138999323175 0,4 C 0,1.7908610006768257 1.7908610006768257,0 4,0 z" fill="transparent" stroke="none" transform="matrix(1, 0, 0, 1, 0.5, 12.950000000000003)"></path><path d="M 4,0 C 6.209138999323175,0 8,1.7908610006768257 8,4 C 8,6.209138999323175 6.209138999323175,8 4,8 C 1.7908610006768257,8 0,6.209138999323175 0,4 C 0,1.7908610006768257 1.7908610006768257,0 4,0 z" fill="transparent" stroke="none" transform="matrix(1, 0, 0, 1, 143.6999969482422, 12.950000000000003)"></path><path d="M 4,0 C 6.209138999323175,0 8,1.7908610006768257 8,4 C 8,6.209138999323175 6.209138999323175,8 4,8 C 1.7908610006768257,8 0,6.209138999323175 0,4 C 0,1.7908610006768257 1.7908610006768257,0 4,0 z" fill="transparent" stroke="none" transform="matrix(1, 0, 0, 1, 72.0999984741211, 25.400000000000006)"></path></g><g transform="matrix(1, 0, 0, 1, -715.7809448242188, 284.22190754967414)"><path d="M 0,0 L 37.72618865966797,0 Q 38.22618865966797,0 38.22618865966797,0.5 L 38.22618865966797,1 L 72.45237731933594,1" fill="none" stroke="transparent" stroke-width="8" stroke-linecap="butt" stroke-linejoin="miter" stroke-miterlimit="10" transform="matrix(1, 0, 0, 1, 4, 9.911423749153968)"></path><path d="M 0,0 L 37.72618865966797,0 Q 38.22618865966797,0 38.22618865966797,0.5 L 38.22618865966797,1 L 72.45237731933594,1" fill="none" stroke="gray" stroke-width="2" stroke-linecap="butt" stroke-linejoin="miter" stroke-miterlimit="10" transform="matrix(1, 0, 0, 1, 4, 9.911423749153968)"></path><path d="M 0,0 L 8,4 L 0,8 L 2,4 z" fill="gray" stroke="none" transform="matrix(1, 0, 0, 1, 71.95237731933594, 6.911423749153968)"></path><g transform="matrix(1, 0, 0, 1, 25.464764910514, 0)"><path d="M 5,0 L 27.52284749830794,0 C 29.76142374915397,0 32.52284749830794,2.761423749153968 32.52284749830794,5 L 32.52284749830794,14.822847498307937 C 32.52284749830794,17.061423749153967 29.76142374915397,19.822847498307937 27.52284749830794,19.822847498307937 L 5,19.822847498307937 C 2.761423749153968,19.822847498307937 0,17.061423749153967 0,14.822847498307937 L 0,5 C 0,2.761423749153968 2.761423749153968,0 5,0 z" fill="#F8F8F8" stroke="none" transform="matrix(1, 0, 0, 1, 0.5, 0.5)"></path><text x="13.5" y="10.725000000000001" style="font: 10pt helvetica, arial, sans-serif" text-anchor="middle" fill="#333333" stroke="none" transform="matrix(1, 0, 0, 1, 3.261423749153968, 3.261423749153967)">Nein</text></g></g><g transform="matrix(1, 0, 0, 1, -834.6614176456384, 340.43333129882814)"><path d="M 1,0 L 1,24.42500000000001 Q 1,24.92500000000001 0.5,24.92500000000001 L 0,24.92500000000001 L 0,45.849999999999966" fill="none" stroke="transparent" stroke-width="8" stroke-linecap="butt" stroke-linejoin="miter" stroke-miterlimit="10" transform="matrix(1, 0, 0, 1, 9.761423749153968, 4)"></path><path d="M 1,0 L 1,24.42500000000001 Q 1,24.92500000000001 0.5,24.92500000000001 L 0,24.92500000000001 L 0,45.849999999999966" fill="none" stroke="gray" stroke-width="2" stroke-linecap="butt" stroke-linejoin="miter" stroke-miterlimit="10" transform="matrix(1, 0, 0, 1, 9.761423749153968, 4)"></path><path d="M 0,0 L 8,4 L 0,8 L 2,4 z" fill="gray" stroke="none" transform="matrix(0, 1, -1, 0, 13.761423749153968, 45.349999999999966)"></path><g transform="matrix(1, 0, 0, 1, 0, 18.513576250846043)"><path d="M 5,0 L 14.522847498307936,0 C 16.76142374915397,0 19.522847498307936,2.761423749153968 19.522847498307936,5 L 19.522847498307936,14.822847498307937 C 19.522847498307936,17.061423749153967 16.76142374915397,19.822847498307937 14.522847498307936,19.822847498307937 L 5,19.822847498307937 C 2.761423749153968,19.822847498307937 0,17.061423749153967 0,14.822847498307937 L 0,5 C 0,2.761423749153968 2.761423749153968,0 5,0 z" fill="#F8F8F8" stroke="none" transform="matrix(1, 0, 0, 1, 0.5, 0.5)"></path><text x="7" y="10.725000000000001" style="font: 10pt helvetica, arial, sans-serif" text-anchor="middle" fill="#333333" stroke="none" transform="matrix(1, 0, 0, 1, 3.261423749153969, 3.261423749153967)">Ja</text></g></g><g transform="matrix(1, 0, 0, 1, -839.1614176456384, 457.9833312988281)"><path d="M 0,0 L 0,51.75000000000006" fill="none" stroke="transparent" stroke-width="8" stroke-linecap="butt" stroke-linejoin="miter" stroke-miterlimit="10" transform="matrix(1, 0, 0, 1, 14.261423749153968, 4)"></path><path d="M 0,0 L 0,51.75000000000006" fill="none" stroke="gray" stroke-width="2" stroke-linecap="butt" stroke-linejoin="miter" stroke-miterlimit="10" transform="matrix(1, 0, 0, 1, 14.261423749153968, 4)"></path><path d="M 0,0 L 8,4 L 0,8 L 2,4 z" fill="gray" stroke="none" transform="matrix(0, 1, -1, 0, 18.26142374915397, 51.25000000000006)"></path></g><g transform="matrix(1, 0, 0, 1, -1079.3913906623131, 419.74024044321493)"><path d="M 93.52997606843269,126.8930908556132 L 5,126.8930908556132 Q 0,126.8930908556132 0,121.8930908556132 L 0,5 Q 0,0 5,0 L 6,0" fill="none" stroke="transparent" stroke-width="8" stroke-linecap="butt" stroke-linejoin="miter" stroke-miterlimit="10" transform="matrix(1, 0, 0, 1, 10.261423749153968, 4.5)"></path><path d="M 93.52997606843269,126.8930908556132 L 5,126.8930908556132 Q 0,126.8930908556132 0,121.8930908556132 L 0,5 Q 0,0 5,0 L 6,0" fill="none" stroke="gray" stroke-width="2" stroke-linecap="butt" stroke-linejoin="miter" stroke-miterlimit="10" transform="matrix(1, 0, 0, 1, 10.261423749153968, 4.5)"></path><path d="M 0,0 L 8,4 L 0,8 L 2,4 z" fill="gray" stroke="none" transform="matrix(1, 0, 0, 1, 11.761423749153968, 0.5)"></path><g transform="matrix(1, 0, 0, 1, 0, 89.25839439255596)"><path d="M 5,0 L 14.522847498307936,0 C 16.76142374915397,0 19.522847498307936,2.761423749153968 19.522847498307936,5 L 19.522847498307936,14.822847498307937 C 19.522847498307936,17.061423749153967 16.76142374915397,19.822847498307937 14.522847498307936,19.822847498307937 L 5,19.822847498307937 C 2.761423749153968,19.822847498307937 0,17.061423749153967 0,14.822847498307937 L 0,5 C 0,2.761423749153968 2.761423749153968,0 5,0 z" fill="#F8F8F8" stroke="none" transform="matrix(1, 0, 0, 1, 0.5, 0.5)"></path><text x="7" y="10.725000000000001" style="font: 10pt helvetica, arial, sans-serif" text-anchor="middle" fill="#333333" stroke="none" transform="matrix(1, 0, 0, 1, 3.261423749153969, 3.261423749153967)">Ja</text></g></g><g transform="matrix(1, 0, 0, 1, -838.1614176456384, 207.9833312988281)"><path d="M 0,0 L 0,27.850000000000023" fill="none" stroke="transparent" stroke-width="8" stroke-linecap="butt" stroke-linejoin="miter" stroke-miterlimit="10" transform="matrix(1, 0, 0, 1, 14.261423749153968, 4)"></path><path d="M 0,0 L 0,27.850000000000023" fill="none" stroke="gray" stroke-width="2" stroke-linecap="butt" stroke-linejoin="miter" stroke-miterlimit="10" transform="matrix(1, 0, 0, 1, 14.261423749153968, 4)"></path><path d="M 0,0 L 8,4 L 0,8 L 2,4 z" fill="gray" stroke="none" transform="matrix(0, 1, -1, 0, 18.26142374915397, 27.350000000000023)"></path></g><g transform="matrix(1, 0, 0, 1, -678.1618957519531, 541.7219075496741)"><path d="M 0,0 L 36.07142639160156,0 Q 37.07142639160156,0 37.07142639160156,1 L 37.07142639160156,1.5 Q 37.07142639160156,2 37.57142639160156,2 L 70.14285278320312,2" fill="none" stroke="transparent" stroke-width="8" stroke-linecap="butt" stroke-linejoin="miter" stroke-miterlimit="10" transform="matrix(1, 0, 0, 1, 4, 9.411423749153968)"></path><path d="M 0,0 L 36.07142639160156,0 Q 37.07142639160156,0 37.07142639160156,1 L 37.07142639160156,1.5 Q 37.07142639160156,2 37.57142639160156,2 L 70.14285278320312,2" fill="none" stroke="gray" stroke-width="2" stroke-linecap="butt" stroke-linejoin="miter" stroke-miterlimit="10" transform="matrix(1, 0, 0, 1, 4, 9.411423749153968)"></path><path d="M 0,0 L 8,4 L 0,8 L 2,4 z" fill="gray" stroke="none" transform="matrix(1, 0, 0, 1, 69.64285278320312, 7.411423749153968)"></path><g transform="matrix(1, 0, 0, 1, 24.310002642447593, 0)"><path d="M 5,0 L 27.52284749830794,0 C 29.76142374915397,0 32.52284749830794,2.761423749153968 32.52284749830794,5 L 32.52284749830794,14.822847498307937 C 32.52284749830794,17.061423749153967 29.76142374915397,19.822847498307937 27.52284749830794,19.822847498307937 L 5,19.822847498307937 C 2.761423749153968,19.822847498307937 0,17.061423749153967 0,14.822847498307937 L 0,5 C 0,2.761423749153968 2.761423749153968,0 5,0 z" fill="#F8F8F8" stroke="none" transform="matrix(1, 0, 0, 1, 0.5, 0.5)"></path><text x="13.5" y="10.725000000000001" style="font: 10pt helvetica, arial, sans-serif" text-anchor="middle" fill="#333333" stroke="none" transform="matrix(1, 0, 0, 1, 3.261423749153968, 3.261423749153967)">Nein</text></g></g><g transform="matrix(1, 0, 0, 1, -828.3999938964844, 123.87190754967413)"><path d="M 376.1190490722656,418.85 L 382.2797622680664,418.85 Q 387.2797622680664,418.85 387.2797622680664,413.85 L 387.2797622680664,5 Q 387.2797622680664,0 382.2797622680664,0 L 5,0 Q 0,0 0,5 L 0,6" fill="none" stroke="transparent" stroke-width="8" stroke-linecap="butt" stroke-linejoin="miter" stroke-miterlimit="10" transform="matrix(1, 0, 0, 1, 4.5, 10.411423749153968)"></path><path d="M 376.1190490722656,418.85 L 382.2797622680664,418.85 Q 387.2797622680664,418.85 387.2797622680664,413.85 L 387.2797622680664,5 Q 387.2797622680664,0 382.2797622680664,0 L 5,0 Q 0,0 0,5 L 0,6" fill="none" stroke="gray" stroke-width="2" stroke-linecap="butt" stroke-linejoin="miter" stroke-miterlimit="10" transform="matrix(1, 0, 0, 1, 4.5, 10.411423749153968)"></path><path d="M 0,0 L 8,4 L 0,8 L 2,4 z" fill="gray" stroke="none" transform="matrix(0, 1, -1, 0, 8.5, 11.911423749153968)"></path></g><g transform="matrix(1, 0, 0, 1, -748.2809448242188, 167.72190754967414)"><path d="M 263.8095245361328,117.00000000000003 L 268.8095245361328,117.00000000000003 Q 273.8095245361328,117.00000000000003 273.8095245361328,112.00000000000003 L 273.8095245361328,5 Q 273.8095245361328,0 268.8095245361328,0 L 4,0" fill="none" stroke="transparent" stroke-width="8" stroke-linecap="butt" stroke-linejoin="miter" stroke-miterlimit="10" transform="matrix(1, 0, 0, 1, 4, 10.411423749153968)"></path><path d="M 263.8095245361328,117.00000000000003 L 268.8095245361328,117.00000000000003 Q 273.8095245361328,117.00000000000003 273.8095245361328,112.00000000000003 L 273.8095245361328,5 Q 273.8095245361328,0 268.8095245361328,0 L 4,0" fill="none" stroke="gray" stroke-width="2" stroke-linecap="butt" stroke-linejoin="miter" stroke-miterlimit="10" transform="matrix(1, 0, 0, 1, 4, 10.411423749153968)"></path><path d="M 0,0 L 8,4 L 0,8 L 2,4 z" fill="gray" stroke="none" transform="matrix(-1, 0, 0, -1, 12.5, 14.411423749153968)"></path></g><g transform="matrix(1, 0, 0, 1, -838.1614176456384, 95.60218551547027)"><path d="M 0,0 L 0,40.681145783357834" fill="none" stroke="transparent" stroke-width="8" stroke-linecap="butt" stroke-linejoin="miter" stroke-miterlimit="10" transform="matrix(1, 0, 0, 1, 14.261423749153968, 4)"></path><path d="M 0,0 L 0,40.681145783357834" fill="none" stroke="gray" stroke-width="2" stroke-linecap="butt" stroke-linejoin="miter" stroke-miterlimit="10" transform="matrix(1, 0, 0, 1, 14.261423749153968, 4)"></path><path d="M 0,0 L 8,4 L 0,8 L 2,4 z" fill="gray" stroke="none" transform="matrix(0, 1, -1, 0, 18.26142374915397, 40.181145783357834)"></path></g><g transform="matrix(1, 0, 0, 1, -1059.1299669131593, 390.3902404432149)"><g transform="matrix(1, 0, 0, 1, 0, 0)"><path d="M 0,0 L 113,0 L 113,66.7 L 0,66.7 z" fill="#00A9C9" stroke="none" transform="matrix(1, 0, 0, 1, 0.5, 0.5)"></path><text x="0" y="12.675" style="font: bold 11pt Helvetica, Arial, sans-serif" text-anchor="start" fill="whitesmoke" stroke="none" transform="matrix(1, 0, 0, 1, 8.5, 8.5)">Optimum für</text><text x="0" y="29.575000000000003" style="font: bold 11pt Helvetica, Arial, sans-serif" text-anchor="start" fill="whitesmoke" stroke="none" transform="matrix(1, 0, 0, 1, 8.5, 8.5)">Restkapazität</text><text x="0" y="46.475" style="font: bold 11pt Helvetica, Arial, sans-serif" text-anchor="start" fill="whitesmoke" stroke="none" transform="matrix(1, 0, 0, 1, 8.5, 8.5)">addieren</text></g><path d="M 4,0 C 6.209138999323175,0 8,1.7908610006768257 8,4 C 8,6.209138999323175 6.209138999323175,8 4,8 C 1.7908610006768257,8 0,6.209138999323175 0,4 C 0,1.7908610006768257 1.7908610006768257,0 4,0 z" fill="transparent" stroke="none" transform="matrix(1, 0, 0, 1, 53, 0.5)"></path><path d="M 4,0 C 6.209138999323175,0 8,1.7908610006768257 8,4 C 8,6.209138999323175 6.209138999323175,8 4,8 C 1.7908610006768257,8 0,6.209138999323175 0,4 C 0,1.7908610006768257 1.7908610006768257,0 4,0 z" fill="transparent" stroke="none" transform="matrix(1, 0, 0, 1, 0.5, 29.85)"></path><path d="M 4,0 C 6.209138999323175,0 8,1.7908610006768257 8,4 C 8,6.209138999323175 6.209138999323175,8 4,8 C 1.7908610006768257,8 0,6.209138999323175 0,4 C 0,1.7908610006768257 1.7908610006768257,0 4,0 z" fill="transparent" stroke="none" transform="matrix(1, 0, 0, 1, 105.5, 29.85)"></path><path d="M 4,0 C 6.209138999323175,0 8,1.7908610006768257 8,4 C 8,6.209138999323175 6.209138999323175,8 4,8 C 1.7908610006768257,8 0,6.209138999323175 0,4 C 0,1.7908610006768257 1.7908610006768257,0 4,0 z" fill="transparent" stroke="none" transform="matrix(1, 0, 0, 1, 53, 59.2)"></path></g><g transform="matrix(1, 0, 0, 1, -1016.3913906623133, 174.13333129882812)"><path d="M 98.62997454255378,0 L 5,0 Q 0,0 0,5 L 0,208.25690914438678" fill="none" stroke="transparent" stroke-width="8" stroke-linecap="butt" stroke-linejoin="miter" stroke-miterlimit="10" transform="matrix(1, 0, 0, 1, 14.261423749153968, 4)"></path><path d="M 98.62997454255378,0 L 5,0 Q 0,0 0,5 L 0,208.25690914438678" fill="none" stroke="gray" stroke-width="2" stroke-linecap="butt" stroke-linejoin="miter" stroke-miterlimit="10" transform="matrix(1, 0, 0, 1, 14.261423749153968, 4)"></path><path d="M 0,0 L 8,4 L 0,8 L 2,4 z" fill="gray" stroke="none" transform="matrix(0, 1, -1, 0, 18.26142374915397, 207.75690914438678)"></path></g></g></g><clipPath id="mainClip57718"><rect x="0" y="0" width="326" height="271"></rect></clipPath></svg>
