<svg width="349px" height="269px" QK="0 0 349 269" xmlns="http://www.w3.org/2000/svg" xmlns:xlink="http://www.w3.org/1999/xlink"><g transform="matrix(1, 0, 0, 1, 0, 0)" clip-path="url(#mainClip92873)"><g transform="matrix(0.5, 0, 0, 0.5, 504.0363603725956, 2.0104475766867456)"><g transform="matrix(1, 0, 0, 1, -762.3938610115575, -2.020895153373491)"><g transform="matrix(1, 0, 0, 1, 0, 0)"><path d="M 26.16279069767442,0 C 40.61210101301495,0 52.32558139534884,11.71348038233389 52.32558139534884,26.16279069767442 C 52.32558139534884,40.61210101301495 40.61210101301495,52.32558139534884 26.16279069767442,52.32558139534884 C 11.71348038233389,52.32558139534884 0,40.61210101301495 0,26.16279069767442 C 0,11.71348038233389 11.71348038233389,0 26.16279069767442,0 z" fill="#79C900" stroke="none" transform="matrix(1, 0, 0, 1, 0.5, 0.5)"></path><text x="0" y="12.675" style="font: bold 11pt Helvetica, Arial, sans-serif" text-anchor="start" fill="whitesmoke" stroke="none" transform="matrix(1, 0, 0, 1, 8.66279069767442, 18.21279069767442)">Start</text></g><path d="M 4,0 C 6.209138999323175,0 8,1.7908610006768257 8,4 C 8,6.209138999323175 6.209138999323175,8 4,8 C 1.7908610006768257,8 0,6.209138999323175 0,4 C 0,1.7908610006768257 1.7908610006768257,0 4,0 z" fill="transparent" stroke="none" transform="matrix(1, 0, 0, 1, 0.5, 22.66279069767442)"></path><path d="M 4,0 C 6.209138999323175,0 8,1.7908610006768257 8,4 C 8,6.209138999323175 6.209138999323175,8 4,8 C 1.7908610006768257,8 0,6.209138999323175 0,4 C 0,1.7908610006768257 1.7908610006768257,0 4,0 z" fill="transparent" stroke="none" transform="matrix(1, 0, 0, 1, 44.82558139534884, 22.66279069767442)"></path><path d="M 4,0 C 6.209138999323175,0 8,1.7908610006768257 8,4 C 8,6.209138999323175 6.209138999323175,8 4,8 C 1.7908610006768257,8 0,6.209138999323175 0,4 C 0,1.7908610006768257 1.7908610006768257,0 4,0 z" fill="transparent" stroke="none" transform="matrix(1, 0, 0, 1, 22.66279069767442, 44.82558139534884)"></path></g><g transform="matrix(1, 0, 0, 1, -814.8310687880041, 97.35145418401135)"><g transform="matrix(1, 0, 0, 1, 0, 0)"><path d="M 0,0 L 157.1999969482422,0 L 157.1999969482422,66.7 L 0,66.7 z" fill="#00A9C9" stroke="none" transform="matrix(1, 0, 0, 1, 0.5, 0.5)"></path><text x="0" y="12.675" style="font: bold 11pt Helvetica, Arial, sans-serif" text-anchor="start" fill="whitesmoke" stroke="none" transform="matrix(1, 0, 0, 1, 8.5, 8.5)">Nimm grösst</text><text x="0" y="29.575000000000003" style="font: bold 11pt Helvetica, Arial, sans-serif" text-anchor="start" fill="whitesmoke" stroke="none" transform="matrix(1, 0, 0, 1, 8.5, 8.5)">möglicher Wert aus</text><text x="0" y="46.475" style="font: bold 11pt Helvetica, Arial, sans-serif" text-anchor="start" fill="whitesmoke" stroke="none" transform="matrix(1, 0, 0, 1, 8.5, 8.5)">Tabelle (von Unten)</text></g><path d="M 4,0 C 6.209138999323175,0 8,1.7908610006768257 8,4 C 8,6.209138999323175 6.209138999323175,8 4,8 C 1.7908610006768257,8 0,6.209138999323175 0,4 C 0,1.7908610006768257 1.7908610006768257,0 4,0 z" fill="transparent" stroke="none" transform="matrix(1, 0, 0, 1, 75.0999984741211, 0.5)"></path><path d="M 4,0 C 6.209138999323175,0 8,1.7908610006768257 8,4 C 8,6.209138999323175 6.209138999323175,8 4,8 C 1.7908610006768257,8 0,6.209138999323175 0,4 C 0,1.7908610006768257 1.7908610006768257,0 4,0 z" fill="transparent" stroke="none" transform="matrix(1, 0, 0, 1, 0.5, 29.85)"></path><path d="M 4,0 C 6.209138999323175,0 8,1.7908610006768257 8,4 C 8,6.209138999323175 6.209138999323175,8 4,8 C 1.7908610006768257,8 0,6.209138999323175 0,4 C 0,1.7908610006768257 1.7908610006768257,0 4,0 z" fill="transparent" stroke="none" transform="matrix(1, 0, 0, 1, 149.6999969482422, 29.85)"></path><path d="M 4,0 C 6.209138999323175,0 8,1.7908610006768257 8,4 C 8,6.209138999323175 6.209138999323175,8 4,8 C 1.7908610006768257,8 0,6.209138999323175 0,4 C 0,1.7908610006768257 1.7908610006768257,0 4,0 z" fill="transparent" stroke="none" transform="matrix(1, 0, 0, 1, 75.0999984741211, 59.2)"></path></g><g transform="matrix(1, 0, 0, 1, -904.0310733656409, 189.70321648127083)"><g transform="matrix(1, 0, 0, 1, 0, 0)"><path d="M 167.8000030517578,0 L 0,83.60000000000001 L 167.8000030517578,167.20000000000002 L 335.6000061035156,83.60000000000001 z" fill="#00A9C9" stroke="none" transform="matrix(1, 0, 0, 1, 0.5, 0.5)"></path><text x="0" y="12.675" style="font: bold 11pt Helvetica, Arial, sans-serif" text-anchor="start" fill="whitesmoke" stroke="none" transform="matrix(1, 0, 0, 1, 92.4000015258789, 50.3)">Hat nächst höhere</text><text x="0" y="29.575000000000003" style="font: bold 11pt Helvetica, Arial, sans-serif" text-anchor="start" fill="whitesmoke" stroke="none" transform="matrix(1, 0, 0, 1, 92.4000015258789, 50.3)">Zelle den Gleichen</text><text x="0" y="46.475" style="font: bold 11pt Helvetica, Arial, sans-serif" text-anchor="start" fill="whitesmoke" stroke="none" transform="matrix(1, 0, 0, 1, 92.4000015258789, 50.3)">Wert wie die aktuelle</text><text x="0" y="63.37500000000001" style="font: bold 11pt Helvetica, Arial, sans-serif" text-anchor="start" fill="whitesmoke" stroke="none" transform="matrix(1, 0, 0, 1, 92.4000015258789, 50.3)">Zelle?</text></g><path d="M 4,0 C 6.209138999323175,0 8,1.7908610006768257 8,4 C 8,6.209138999323175 6.209138999323175,8 4,8 C 1.7908610006768257,8 0,6.209138999323175 0,4 C 0,1.7908610006768257 1.7908610006768257,0 4,0 z" fill="transparent" stroke="none" transform="matrix(1, 0, 0, 1, 164.3000030517578, 0.5)"></path><path d="M 4,0 C 6.209138999323175,0 8,1.7908610006768257 8,4 C 8,6.209138999323175 6.209138999323175,8 4,8 C 1.7908610006768257,8 0,6.209138999323175 0,4 C 0,1.7908610006768257 1.7908610006768257,0 4,0 z" fill="transparent" stroke="none" transform="matrix(1, 0, 0, 1, 0.5, 80.10000000000001)"></path><path d="M 4,0 C 6.209138999323175,0 8,1.7908610006768257 8,4 C 8,6.209138999323175 6.209138999323175,8 4,8 C 1.7908610006768257,8 0,6.209138999323175 0,4 C 0,1.7908610006768257 1.7908610006768257,0 4,0 z" fill="transparent" stroke="none" transform="matrix(1, 0, 0, 1, 328.1000061035156, 80.10000000000001)"></path><path d="M 4,0 C 6.209138999323175,0 8,1.7908610006768257 8,4 C 8,6.209138999323175 6.209138999323175,8 4,8 C 1.7908610006768257,8 0,6.209138999323175 0,4 C 0,1.7908610006768257 1.7908610006768257,0 4,0 z" fill="transparent" stroke="none" transform="matrix(1, 0, 0, 1, 164.3000030517578, 159.70000000000002)"></path></g><g transform="matrix(1, 0, 0, 1, -502.6688697541623, 367.22203111146734)"><g transform="matrix(1, 0, 0, 1, 0, 0)"><path d="M 0,0 L 173.8000030517578,0 L 173.8000030517578,100.5 L 0,100.5 z" fill="#00A9C9" stroke="none" transform="matrix(1, 0, 0, 1, 0.5, 0.5)"></path><text x="0" y="12.675" style="font: bold 11pt Helvetica, Arial, sans-serif" text-anchor="start" fill="whitesmoke" stroke="none" transform="matrix(1, 0, 0, 1, 8.5, 8.5)">Gegenstand kommt</text><text x="0" y="29.575000000000003" style="font: bold 11pt Helvetica, Arial, sans-serif" text-anchor="start" fill="whitesmoke" stroke="none" transform="matrix(1, 0, 0, 1, 8.5, 8.5)">nicht in den Rucksack</text><text x="0" y="46.475" style="font: bold 11pt Helvetica, Arial, sans-serif" text-anchor="start" fill="whitesmoke" stroke="none" transform="matrix(1, 0, 0, 1, 8.5, 8.5)"></text><text x="0" y="63.37500000000001" style="font: bold 11pt Helvetica, Arial, sans-serif" text-anchor="start" fill="whitesmoke" stroke="none" transform="matrix(1, 0, 0, 1, 8.5, 8.5)">Fahre mit der oberen</text><text x="0" y="80.27500000000002" style="font: bold 11pt Helvetica, Arial, sans-serif" text-anchor="start" fill="whitesmoke" stroke="none" transform="matrix(1, 0, 0, 1, 8.5, 8.5)">Zelle fort.</text></g><path d="M 4,0 C 6.209138999323175,0 8,1.7908610006768257 8,4 C 8,6.209138999323175 6.209138999323175,8 4,8 C 1.7908610006768257,8 0,6.209138999323175 0,4 C 0,1.7908610006768257 1.7908610006768257,0 4,0 z" fill="transparent" stroke="none" transform="matrix(1, 0, 0, 1, 83.4000015258789, 0.5)"></path><path d="M 4,0 C 6.209138999323175,0 8,1.7908610006768257 8,4 C 8,6.209138999323175 6.209138999323175,8 4,8 C 1.7908610006768257,8 0,6.209138999323175 0,4 C 0,1.7908610006768257 1.7908610006768257,0 4,0 z" fill="transparent" stroke="none" transform="matrix(1, 0, 0, 1, 0.5, 46.75)"></path><path d="M 4,0 C 6.209138999323175,0 8,1.7908610006768257 8,4 C 8,6.209138999323175 6.209138999323175,8 4,8 C 1.7908610006768257,8 0,6.209138999323175 0,4 C 0,1.7908610006768257 1.7908610006768257,0 4,0 z" fill="transparent" stroke="none" transform="matrix(1, 0, 0, 1, 166.3000030517578, 46.75)"></path><path d="M 4,0 C 6.209138999323175,0 8,1.7908610006768257 8,4 C 8,6.209138999323175 6.209138999323175,8 4,8 C 1.7908610006768257,8 0,6.209138999323175 0,4 C 0,1.7908610006768257 1.7908610006768257,0 4,0 z" fill="transparent" stroke="none" transform="matrix(1, 0, 0, 1, 83.4000015258789, 93)"></path></g><g transform="matrix(1, 0, 0, 1, -992.0727207451912, 394.9830226001694)"><g transform="matrix(1, 0, 0, 1, 0, 0)"><path d="M 0,0 L 173.1999969482422,0 L 173.1999969482422,134.3 L 0,134.3 z" fill="#00A9C9" stroke="none" transform="matrix(1, 0, 0, 1, 0.5, 0.5)"></path><text x="0" y="12.675" style="font: bold 11pt Helvetica, Arial, sans-serif" text-anchor="start" fill="whitesmoke" stroke="none" transform="matrix(1, 0, 0, 1, 8.5, 8.5)">Gegenstand kommt in</text><text x="0" y="29.575000000000003" style="font: bold 11pt Helvetica, Arial, sans-serif" text-anchor="start" fill="whitesmoke" stroke="none" transform="matrix(1, 0, 0, 1, 8.5, 8.5)">den Rucksack.</text><text x="0" y="46.475" style="font: bold 11pt Helvetica, Arial, sans-serif" text-anchor="start" fill="whitesmoke" stroke="none" transform="matrix(1, 0, 0, 1, 8.5, 8.5)"></text><text x="0" y="63.37500000000001" style="font: bold 11pt Helvetica, Arial, sans-serif" text-anchor="start" fill="whitesmoke" stroke="none" transform="matrix(1, 0, 0, 1, 8.5, 8.5)">Ziehe Gewicht des</text><text x="0" y="80.27500000000002" style="font: bold 11pt Helvetica, Arial, sans-serif" text-anchor="start" fill="whitesmoke" stroke="none" transform="matrix(1, 0, 0, 1, 8.5, 8.5)">Gegenstands ab und</text><text x="0" y="97.17500000000003" style="font: bold 11pt Helvetica, Arial, sans-serif" text-anchor="start" fill="whitesmoke" stroke="none" transform="matrix(1, 0, 0, 1, 8.5, 8.5)">wiederhole den</text><text x="0" y="114.07500000000003" style="font: bold 11pt Helvetica, Arial, sans-serif" text-anchor="start" fill="whitesmoke" stroke="none" transform="matrix(1, 0, 0, 1, 8.5, 8.5)">Prozess für den Rest.</text></g><path d="M 4,0 C 6.209138999323175,0 8,1.7908610006768257 8,4 C 8,6.209138999323175 6.209138999323175,8 4,8 C 1.7908610006768257,8 0,6.209138999323175 0,4 C 0,1.7908610006768257 1.7908610006768257,0 4,0 z" fill="transparent" stroke="none" transform="matrix(1, 0, 0, 1, 83.0999984741211, 0.5)"></path><path d="M 4,0 C 6.209138999323175,0 8,1.7908610006768257 8,4 C 8,6.209138999323175 6.209138999323175,8 4,8 C 1.7908610006768257,8 0,6.209138999323175 0,4 C 0,1.7908610006768257 1.7908610006768257,0 4,0 z" fill="transparent" stroke="none" transform="matrix(1, 0, 0, 1, 0.5, 63.650000000000006)"></path><path d="M 4,0 C 6.209138999323175,0 8,1.7908610006768257 8,4 C 8,6.209138999323175 6.209138999323175,8 4,8 C 1.7908610006768257,8 0,6.209138999323175 0,4 C 0,1.7908610006768257 1.7908610006768257,0 4,0 z" fill="transparent" stroke="none" transform="matrix(1, 0, 0, 1, 165.6999969482422, 63.650000000000006)"></path><path d="M 4,0 C 6.209138999323175,0 8,1.7908610006768257 8,4 C 8,6.209138999323175 6.209138999323175,8 4,8 C 1.7908610006768257,8 0,6.209138999323175 0,4 C 0,1.7908610006768257 1.7908610006768257,0 4,0 z" fill="transparent" stroke="none" transform="matrix(1, 0, 0, 1, 83.0999984741211, 126.80000000000001)"></path></g><g transform="matrix(1, 0, 0, 1, -909.4727222710701, 353.9032164812709)"><path d="M 169.24165195718706,0 L 169.24165195718706,13.539903059449273 Q 169.24165195718706,18.539903059449273 164.24165195718706,18.539903059449273 L 5,18.539903059449273 Q 0,18.539903059449273 0,23.539903059449273 L 0,33.079806118898546" fill="none" stroke="transparent" stroke-width="8" stroke-linecap="butt" stroke-linejoin="miter" stroke-miterlimit="10" transform="matrix(1, 0, 0, 1, 4.5, 4)"></path><path d="M 169.24165195718706,0 L 169.24165195718706,13.539903059449273 Q 169.24165195718706,18.539903059449273 164.24165195718706,18.539903059449273 L 5,18.539903059449273 Q 0,18.539903059449273 0,23.539903059449273 L 0,33.079806118898546" fill="none" stroke="gray" stroke-width="2" stroke-linecap="butt" stroke-linejoin="miter" stroke-miterlimit="10" transform="matrix(1, 0, 0, 1, 4.5, 4)"></path><path d="M 0,0 L 8,4 L 0,8 L 2,4 z" fill="gray" stroke="none" transform="matrix(0, 1, -1, 0, 8.5, 32.579806118898546)"></path><g transform="matrix(1, 0, 0, 1, 72.35940222943955, 12.128479310295305)"><path d="M 5,0 L 27.52284749830794,0 C 29.76142374915397,0 32.52284749830794,2.761423749153968 32.52284749830794,5 L 32.52284749830794,14.822847498307937 C 32.52284749830794,17.061423749153967 29.76142374915397,19.822847498307937 27.52284749830794,19.822847498307937 L 5,19.822847498307937 C 2.761423749153968,19.822847498307937 0,17.061423749153967 0,14.822847498307937 L 0,5 C 0,2.761423749153968 2.761423749153968,0 5,0 z" fill="#F8F8F8" stroke="none" transform="matrix(1, 0, 0, 1, 0.5, 0.5)"></path><text x="13.5" y="10.725000000000001" style="font: 10pt helvetica, arial, sans-serif" text-anchor="middle" fill="#333333" stroke="none" transform="matrix(1, 0, 0, 1, 3.261423749153968, 3.261423749153967)">Nein</text></g></g><g transform="matrix(1, 0, 0, 1, -1006.0727207451912, 263.39179273211687)"><path d="M 10,188.82980611889855 L 5,188.82980611889855 Q 0,188.82980611889855 0,183.82980611889855 L 0,5 Q 0,0 5,0 L 94.04164737955034,0" fill="none" stroke="transparent" stroke-width="8" stroke-linecap="butt" stroke-linejoin="miter" stroke-miterlimit="10" transform="matrix(1, 0, 0, 1, 4, 10.411423749153968)"></path><path d="M 10,188.82980611889855 L 5,188.82980611889855 Q 0,188.82980611889855 0,183.82980611889855 L 0,5 Q 0,0 5,0 L 94.04164737955034,0" fill="none" stroke="gray" stroke-width="2" stroke-linecap="butt" stroke-linejoin="miter" stroke-miterlimit="10" transform="matrix(1, 0, 0, 1, 4, 10.411423749153968)"></path><path d="M 0,0 L 8,4 L 0,8 L 2,4 z" fill="gray" stroke="none" transform="matrix(1, 0, 0, 1, 93.54164737955034, 6.411423749153968)"></path></g><g transform="matrix(1, 0, 0, 1, -571.4310672621252, 269.80321648127085)"><path d="M 0,0 L 27.381098753981405,0 Q 32.381098753981405,0 32.381098753981405,5 L 32.381098753981405,139.1688146301965 Q 32.381098753981405,144.1688146301965 37.381098753981405,144.1688146301965 L 60.762197507962924,144.1688146301965" fill="none" stroke="transparent" stroke-width="8" stroke-linecap="butt" stroke-linejoin="miter" stroke-miterlimit="10" transform="matrix(1, 0, 0, 1, 4, 4)"></path><path d="M 0,0 L 27.381098753981405,0 Q 32.381098753981405,0 32.381098753981405,5 L 32.381098753981405,139.1688146301965 Q 32.381098753981405,144.1688146301965 37.381098753981405,144.1688146301965 L 60.762197507962924,144.1688146301965" fill="none" stroke="gray" stroke-width="2" stroke-linecap="butt" stroke-linejoin="miter" stroke-miterlimit="10" transform="matrix(1, 0, 0, 1, 4, 4)"></path><path d="M 0,0 L 8,4 L 0,8 L 2,4 z" fill="gray" stroke="none" transform="matrix(1, 0, 0, 1, 60.262197507962924, 144.1688146301965)"></path><g transform="matrix(1, 0, 0, 1, 26.119675004827435, 65.67298356594428)"><path d="M 5,0 L 14.522847498307936,0 C 16.76142374915397,0 19.522847498307936,2.761423749153968 19.522847498307936,5 L 19.522847498307936,14.822847498307937 C 19.522847498307936,17.061423749153967 16.76142374915397,19.822847498307937 14.522847498307936,19.822847498307937 L 5,19.822847498307937 C 2.761423749153968,19.822847498307937 0,17.061423749153967 0,14.822847498307937 L 0,5 C 0,2.761423749153968 2.761423749153968,0 5,0 z" fill="#F8F8F8" stroke="none" transform="matrix(1, 0, 0, 1, 0.5, 0.5)"></path><text x="7" y="10.725000000000001" style="font: 10pt helvetica, arial, sans-serif" text-anchor="middle" fill="#333333" stroke="none" transform="matrix(1, 0, 0, 1, 3.261423749153969, 3.261423749153967)">Ja</text></g></g><g transform="matrix(1, 0, 0, 1, -749.992494063037, 161.05145418401133)"><path d="M 0,0 L 0,20.651762297259495" fill="none" stroke="transparent" stroke-width="8" stroke-linecap="butt" stroke-linejoin="miter" stroke-miterlimit="10" transform="matrix(1, 0, 0, 1, 14.261423749153968, 4)"></path><path d="M 0,0 L 0,20.651762297259495" fill="none" stroke="gray" stroke-width="2" stroke-linecap="butt" stroke-linejoin="miter" stroke-miterlimit="10" transform="matrix(1, 0, 0, 1, 14.261423749153968, 4)"></path><path d="M 0,0 L 8,4 L 0,8 L 2,4 z" fill="gray" stroke="none" transform="matrix(0, 1, -1, 0, 18.26142374915397, 20.151762297259495)"></path></g><g transform="matrix(1, 0, 0, 1, -749.992494063037, 47.30468624197535)"><path d="M 0,0 L 1.1368683772161603e-13,42.046767942036" fill="none" stroke="transparent" stroke-width="8" stroke-linecap="butt" stroke-linejoin="miter" stroke-miterlimit="10" transform="matrix(1, 0, 0, 1, 14.261423749153854, 4)"></path><path d="M 0,0 L 1.1368683772161603e-13,42.046767942036" fill="none" stroke="gray" stroke-width="2" stroke-linecap="butt" stroke-linejoin="miter" stroke-miterlimit="10" transform="matrix(1, 0, 0, 1, 14.261423749153854, 4)"></path><path d="M 0,0 L 8,4 L 0,8 L 2,4 z" fill="gray" stroke="none" transform="matrix(0, 1, -1, 0, 18.26142374915397, 41.546767942036)"></path></g><g transform="matrix(1, 0, 0, 1, -740.231070313883, 169.29179273211685)"><path d="M 407.86220361147855,238.26881463019652 L 412.86220361147855,238.26881463019652 Q 417.86220361147855,238.26881463019652 417.86220361147855,233.26881463019652 L 417.86220361147855,5 Q 417.86220361147855,0 412.86220361147855,0 L 5,0 Q 0,0 0,5 L 0,6" fill="none" stroke="transparent" stroke-width="8" stroke-linecap="butt" stroke-linejoin="miter" stroke-miterlimit="10" transform="matrix(1, 0, 0, 1, 4.5, 10.411423749153968)"></path><path d="M 407.86220361147855,238.26881463019652 L 412.86220361147855,238.26881463019652 Q 417.86220361147855,238.26881463019652 417.86220361147855,233.26881463019652 L 417.86220361147855,5 Q 417.86220361147855,0 412.86220361147855,0 L 5,0 Q 0,0 0,5 L 0,6" fill="none" stroke="gray" stroke-width="2" stroke-linecap="butt" stroke-linejoin="miter" stroke-miterlimit="10" transform="matrix(1, 0, 0, 1, 4.5, 10.411423749153968)"></path><path d="M 0,0 L 8,4 L 0,8 L 2,4 z" fill="gray" stroke="none" transform="matrix(0, 1, -1, 0, 8.5, 11.911423749153968)"></path></g></g></g><clipPath id="mainClip92873"><rect x="0" y="0" width="349" height="269"></rect></clipPath></svg>
